<?xml version="1.0" encoding="utf-8"?>
<!-- Generator: Adobe Illustrator 21.0.0, SVG Export Plug-In . SVG Version: 6.00 Build 0)  -->
<svg version="1.1" id="Layer_1" xmlns="http://www.w3.org/2000/svg" xmlns:xlink="http://www.w3.org/1999/xlink" x="0px" y="0px"
	 viewBox="0 0 595.3 841.9" style="enable-background:new 0 0 595.3 841.9;" xml:space="preserve">
<style type="text/css">
	.st0{fill:#FFFFFF;stroke:#000000;stroke-miterlimit:10;}
	.st1{fill:none;stroke:#8CB3D5;stroke-width:6;stroke-linecap:round;stroke-miterlimit:10;}
	.st2{fill:#FFFFFF;}
	.st3{fill:none;stroke:#8CB3D5;stroke-width:7;stroke-linecap:round;stroke-miterlimit:10;}
	.st4{fill:#FDFEFE;stroke:#FFFFFF;stroke-linecap:round;stroke-miterlimit:10;}
	.st5{fill:#FFFFFF;stroke:#8DB3D5;stroke-width:7;stroke-miterlimit:10;}
	.st6{fill:#8DB3D5;}
	.st7{fill:#FFFFFF;stroke:#FFFFFF;stroke-miterlimit:10;}
</style>
<path class="st1" d="M288.6,143.4c-0.7,169.2-1.3,338.4-2,507.6c83.4-76,114.8-181.5,106-291.9C381.7,222.3,303.3,152.3,288.6,143.4
	z"/>
<path class="st1" d="M186.8,312.3C212.7,206.6,270,151.2,283,143.4c0.1,169.2,0.3,338.4,0.4,507.6
	c-80.7-77.4-114.1-181.9-105.3-292.3C179.5,342.3,183.3,326.9,186.8,312.3"/>
<rect x="256.5" y="432" class="st2" width="59.5" height="144"/>
<line class="st3" x1="260.3" y1="625.8" x2="311.8" y2="624.7"/>
<path class="st4" d="M259.3,627.7c0.7,1.1,1,2.4,0.8,3.7c0,0.1,0.1,0.3,0.1,0.4c2.8,2.1,2.5,7.2-0.9,8.7c-0.8,1.3-2.1,2.1-4,2.1
	c-1.4,0-2.4-0.4-3.2-1.1c-3-0.1-4.5-2.4-4.6-4.8c-1.6-1.2-2.2-3.5-1.7-5.4c-0.7-1-1-2.4-0.9-3.6h-6.1v46.7h96v-46.7H259.3z"/>
<path class="st5" d="M394,381.5c-41.8,58.1-188.7,93.9-197.5,133.5"/>
<path class="st5" d="M391.1,443.4c-37,51.4-167,83.1-174.9,118.1"/>
<g>
	<g>
		<path class="st6" d="M257.3,626.5c3.2,0,3.2-5,0-5C254,621.5,254,626.5,257.3,626.5L257.3,626.5z"/>
	</g>
</g>
<g>
	<g>
		<path class="st6" d="M258.8,626.9c3.2,0,3.2-5,0-5C255.6,621.9,255.6,626.9,258.8,626.9L258.8,626.9z"/>
	</g>
</g>
<g>
	<g>
		<path class="st6" d="M258.1,627.3c3.2,0,3.2-5,0-5C254.9,622.3,254.9,627.3,258.1,627.3L258.1,627.3z"/>
	</g>
</g>
<path class="st7" d="M258.8,628c0.6,0.7,0.9,1.6,1,2.5c0.2,0.4,0.3,0.9,0.3,1.3c1.9,1.4,2.4,4.3,1.4,6.4h0.9V628H258.8z"/>
<g>
	<g>
		<path class="st2" d="M256.6,632.9c3.2,0,3.2-5,0-5C253.4,627.9,253.4,632.9,256.6,632.9L256.6,632.9z"/>
	</g>
</g>
<g>
	<g>
		<path class="st2" d="M258.5,632.8c3.2,0,3.2-5,0-5C255.3,627.8,255.3,632.8,258.5,632.8L258.5,632.8z"/>
	</g>
</g>
<g>
	<g>
		<path class="st2" d="M255.5,632.8c3.2,0,3.2-5,0-5C252.3,627.8,252.3,632.8,255.5,632.8L255.5,632.8z"/>
	</g>
</g>
<g>
	<g>
		<path class="st2" d="M255.3,632.5c3.2,0,3.2-5,0-5C252,627.5,252,632.5,255.3,632.5L255.3,632.5z"/>
	</g>
</g>
<g>
	<g>
		<path class="st2" d="M258.6,632.6c3.2,0,3.2-5,0-5C255.4,627.6,255.4,632.6,258.6,632.6L258.6,632.6z"/>
	</g>
</g>
<g>
	<g>
		<path class="st2" d="M257.4,632.9c3.2,0,3.2-5,0-5C254.2,627.9,254.2,632.9,257.4,632.9L257.4,632.9z"/>
	</g>
</g>
<g>
	<g>
		<path class="st2" d="M257.8,633c3.2,0,3.2-5,0-5C254.5,628,254.5,633,257.8,633L257.8,633z"/>
	</g>
</g>
<g>
	<g>
		<path class="st2" d="M257.5,633.3c3.2,0,3.2-5,0-5C254.3,628.3,254.3,633.3,257.5,633.3L257.5,633.3z"/>
	</g>
</g>
<g>
	<g>
		<path class="st2" d="M257.1,632.9c3.2,0,3.2-5,0-5C253.9,627.9,253.9,632.9,257.1,632.9L257.1,632.9z"/>
	</g>
</g>
<g>
	<g>
		<path class="st2" d="M257.4,632.5c3.2,0,3.2-5,0-5C254.2,627.5,254.2,632.5,257.4,632.5L257.4,632.5z"/>
	</g>
</g>
<g>
	<g>
		<path class="st2" d="M256.3,632.2c3.2,0,3.2-5,0-5C253.1,627.2,253.1,632.2,256.3,632.2L256.3,632.2z"/>
	</g>
</g>
<g>
	<g>
		<path class="st2" d="M257.3,632.4c3.2,0,3.2-5,0-5C254,627.4,254,632.4,257.3,632.4L257.3,632.4z"/>
	</g>
</g>
<g>
	<g>
		<path class="st2" d="M257.5,632.4c3.2,0,3.2-5,0-5C254.3,627.4,254.2,632.4,257.5,632.4L257.5,632.4z"/>
	</g>
</g>
<g>
	<g>
		<path class="st2" d="M257.6,632.3c3.2,0,3.2-5,0-5C254.4,627.3,254.4,632.3,257.6,632.3L257.6,632.3z"/>
	</g>
</g>
<g>
	<g>
		<path class="st2" d="M257.9,632.3c3.2,0,3.2-5,0-5C254.7,627.3,254.7,632.3,257.9,632.3L257.9,632.3z"/>
	</g>
</g>
<g>
	<g>
		<path class="st2" d="M257.9,632.3c3.2,0,3.2-5,0-5C254.7,627.3,254.7,632.3,257.9,632.3L257.9,632.3z"/>
	</g>
</g>
<g>
	<g>
		<path class="st2" d="M258,632.4c3.2,0,3.2-5,0-5C254.8,627.4,254.8,632.4,258,632.4L258,632.4z"/>
	</g>
</g>
<g>
	<g>
		<path class="st2" d="M258.2,632.3c3.2,0,3.2-5,0-5C254.9,627.3,254.9,632.3,258.2,632.3L258.2,632.3z"/>
	</g>
</g>
<g>
	<g>
		<path class="st2" d="M258.2,632.3c3.2,0,3.2-5,0-5C254.9,627.3,254.9,632.3,258.2,632.3L258.2,632.3z"/>
	</g>
</g>
<g>
	<g>
		<path class="st2" d="M257.4,632.3c3.2,0,3.2-5,0-5C254.2,627.3,254.2,632.3,257.4,632.3L257.4,632.3z"/>
	</g>
</g>
<g>
	<g>
		<path class="st2" d="M256.8,632.2c3.2,0,3.2-5,0-5C253.6,627.2,253.6,632.2,256.8,632.2L256.8,632.2z"/>
	</g>
</g>
<g>
	<g>
		<path class="st2" d="M257.3,632.2c3.2,0,3.2-5,0-5C254.1,627.2,254.1,632.2,257.3,632.2L257.3,632.2z"/>
	</g>
</g>
<g>
	<g>
		<path class="st2" d="M257.8,632.3c3.2,0,3.2-5,0-5C254.6,627.3,254.6,632.3,257.8,632.3L257.8,632.3z"/>
	</g>
</g>
<g>
	<g>
		<path class="st2" d="M258.2,632.4c3.2,0,3.2-5,0-5C255,627.4,255,632.4,258.2,632.4L258.2,632.4z"/>
	</g>
</g>
<g>
	<g>
		<path class="st2" d="M258,632.3c3.2,0,3.2-5,0-5C254.8,627.3,254.7,632.3,258,632.3L258,632.3z"/>
	</g>
</g>
<g>
	<g>
		<path class="st2" d="M258,632.3c3.2,0,3.2-5,0-5C254.8,627.3,254.8,632.3,258,632.3L258,632.3z"/>
	</g>
</g>
<g>
	<g>
		<path class="st2" d="M258.1,632.2c3.2,0,3.2-5,0-5C254.8,627.2,254.8,632.2,258.1,632.2L258.1,632.2z"/>
	</g>
</g>
<g>
	<g>
		<path class="st2" d="M258.2,632.2c3.2,0,3.2-5,0-5C255,627.2,255,632.2,258.2,632.2L258.2,632.2z"/>
	</g>
</g>
<g>
	<g>
		<path class="st2" d="M257.6,632.3c3.2,0,3.2-5,0-5C254.4,627.3,254.4,632.3,257.6,632.3L257.6,632.3z"/>
	</g>
</g>
<g>
	<g>
		<path class="st2" d="M257.6,632.3c3.2,0,3.2-5,0-5C254.4,627.3,254.4,632.3,257.6,632.3L257.6,632.3z"/>
	</g>
</g>
<g>
	<g>
		<path class="st2" d="M257.6,632.2c3.2,0,3.2-5,0-5C254.4,627.2,254.4,632.2,257.6,632.2L257.6,632.2z"/>
	</g>
</g>
<g>
	<g>
		<path class="st2" d="M256.6,632.1c3.2,0,3.2-5,0-5C253.3,627.1,253.3,632.1,256.6,632.1L256.6,632.1z"/>
	</g>
</g>
<g>
	<g>
		<path class="st2" d="M257,632.2c3.2,0,3.2-5,0-5C253.8,627.2,253.8,632.2,257,632.2L257,632.2z"/>
	</g>
</g>
</svg>
